<svg xmlns="http://www.w3.org/2000/svg" viewBox="0 0 8.48 8.64"><defs><style>.cls-1,.cls-2{fill:#8e438e;}.cls-1,.cls-3{fill-rule:evenodd;}.cls-3{fill:#fff;}</style></defs><title>vk</title><g id="Слой_2" data-name="Слой 2"><g id="Layer_1" data-name="Layer 1"><path class="cls-1" d="M4.16,8.64A4.32,4.32,0,0,1,0,5.5H.58a3.76,3.76,0,1,0,0-2.38H0A4.32,4.32,0,1,1,4.16,8.64Z"/><circle class="cls-2" cx="4.24" cy="4.32" r="2.99"/><path class="cls-3" d="M4.13,5.63h.23a.2.2,0,0,0,.11,0,.17.17,0,0,0,0-.1s0-.31.14-.36.33.3.52.44a.37.37,0,0,0,.26.08H6s.27,0,.14-.23a1.76,1.76,0,0,0-.39-.45c-.33-.31-.28-.26.11-.78.24-.32.34-.52.31-.6s-.21-.06-.21-.06H5.33a.14.14,0,0,0-.08,0,.17.17,0,0,0-.05.06A3.43,3.43,0,0,1,5,4c-.26.45-.37.47-.41.44s-.07-.26-.07-.4c0-.43.07-.61-.13-.66a1,1,0,0,0-.28,0,1.28,1.28,0,0,0-.49.05c-.07,0-.12.11-.09.11a.27.27,0,0,1,.17.09.57.57,0,0,1,.06.27s0,.51-.08.57-.19,0-.42-.45A3.77,3.77,0,0,1,3,3.6a.17.17,0,0,0,0-.07.25.25,0,0,0-.09,0H2.33s-.08,0-.12,0,0,.1,0,.1a6.39,6.39,0,0,0,.94,1.54,1.35,1.35,0,0,0,1,.44Z"/></g></g></svg>