<svg width="266" height="88" viewBox="0 0 266 88" fill="none" xmlns="http://www.w3.org/2000/svg">
<path d="M5 26.4144H41.1142V61.5813H26.0981V39.197H19.9578V61.5813H5V26.4144Z" fill="black"/>
<path d="M48.0985 26.4144H72.9797C76.5591 26.4144 79.6147 26.8229 82.0883 27.6401C84.4164 28.3697 86.4534 29.7997 87.9085 31.7842C89.3053 33.7104 90.0037 36.2786 90.0037 39.4597C90.0037 42.6116 89.3053 45.1506 87.9376 47.1059C86.5407 49.0613 84.591 50.5205 82.3211 51.2793C79.9639 52.1256 77.1412 52.5634 73.911 52.5634H62.678V61.5813H48.1276L48.0985 26.4144ZM73.8237 42.0571C74.3184 42.0571 74.784 41.9403 75.1914 41.6777C75.5988 41.415 75.948 41.0648 76.1808 40.6271C76.4136 40.1893 76.5591 39.664 76.53 39.1678C76.53 38.7009 76.4136 38.2048 76.1517 37.7962C75.8898 37.3584 75.5406 37.0082 75.1332 36.7456C74.7258 36.4829 74.2311 36.337 73.7363 36.337H62.678V42.0863H73.8237V42.0571Z" fill="black"/>
<path d="M114.071 62.5151C110.055 62.5151 106.563 61.7563 103.566 60.2387C100.656 58.8087 98.2692 56.5615 96.6396 53.7598C95.01 50.9581 94.1951 47.6895 94.1951 43.9539C94.1951 40.2184 95.01 36.9789 96.6396 34.1772C98.2692 31.4047 100.685 29.1576 103.566 27.7275C106.563 26.21 110.055 25.4512 114.071 25.4512C118.087 25.4512 121.579 26.21 124.576 27.7275C127.487 29.1576 129.902 31.4047 131.532 34.1772C133.161 36.9497 133.976 40.2184 133.976 43.9248C133.976 47.6603 133.161 50.8998 131.532 53.7306C129.902 56.5323 127.487 58.7795 124.576 60.2095C121.579 61.7271 118.058 62.5151 114.071 62.5151ZM114.042 48.711C114.886 48.711 115.701 48.5067 116.428 48.0981C117.127 47.6895 117.709 47.1058 118.116 46.4054C118.523 45.6758 118.756 44.8295 118.727 43.9831C118.727 43.1368 118.523 42.2613 118.116 41.5316C117.709 40.8312 117.127 40.2184 116.428 39.839C115.701 39.4304 114.886 39.1969 114.042 39.2261C113.227 39.2261 112.412 39.4304 111.685 39.839C110.986 40.2475 110.404 40.8312 109.997 41.5316C109.56 42.2904 109.357 43.1368 109.357 43.9831C109.357 44.8295 109.56 45.6758 109.997 46.4054C110.404 47.1058 110.986 47.6895 111.685 48.0981C112.412 48.4775 113.227 48.711 114.042 48.711Z" fill="black"/>
<path d="M157.256 62.5443C153.88 62.5735 150.533 61.8147 147.507 60.2679C144.626 58.8087 142.211 56.5616 140.523 53.7891C138.806 50.9874 137.933 47.7187 137.933 43.9832C137.933 40.2476 138.806 37.0081 140.523 34.2065C142.211 31.434 144.626 29.1868 147.507 27.7276C150.533 26.1808 153.88 25.422 157.256 25.4512C159.962 25.422 162.669 25.7139 165.317 26.3851C167.732 26.998 170.06 27.961 172.214 29.2451L167.907 41.2399C166.568 40.6562 165.142 40.2476 163.716 40.0141C162.203 39.7515 160.69 39.6055 159.147 39.5764C158.012 39.5472 156.877 39.7223 155.83 40.1017C155.015 40.3935 154.287 40.8896 153.764 41.5901C153.269 42.3197 153.036 43.166 153.065 44.0123C152.949 45.7926 154.084 47.4269 155.801 47.9814C156.877 48.3608 158.012 48.5359 159.147 48.5067C160.69 48.5067 162.232 48.3608 163.774 48.0981C165.2 47.8647 166.597 47.4853 167.936 46.9308L172.214 58.8087C169.362 60.5014 166.19 61.6396 162.901 62.1649C161.039 62.4276 159.147 62.5735 157.256 62.5443Z" fill="black"/>
<path d="M183.156 38.9927H175.445V26.4144H205.797V38.9927H198.114V61.5813H183.156V38.9927Z" fill="black"/>
<path d="M235.042 62.5149C229.367 62.5149 224.566 61.8145 220.724 60.4137C216.883 59.0128 213.973 56.9408 212.023 54.1974C210.074 51.4541 209.113 48.0396 209.113 43.9538C209.113 39.868 210.074 36.4535 212.023 33.7393C213.973 30.996 216.854 28.9239 220.724 27.5523C224.595 26.1806 229.367 25.4802 235.042 25.4802C240.746 25.4802 245.518 26.1806 249.389 27.5523C253.259 28.9239 256.14 30.996 258.09 33.7393C260.04 36.4826 261 39.8972 261 43.9538C261 48.0104 260.04 51.4541 258.09 54.1974C256.14 56.9408 253.259 59.0128 249.389 60.4137C245.518 61.8145 240.746 62.5149 235.042 62.5149ZM235.013 48.7108C236.992 48.74 239 48.5649 240.95 48.1563C242.55 47.8061 243.743 47.2516 244.558 46.5512C245.984 45.3546 246.188 43.2242 245.024 41.7942C244.878 41.6191 244.733 41.4731 244.558 41.3272C243.743 40.6268 242.521 40.0723 240.95 39.7221C239 39.3135 237.021 39.1384 235.013 39.1676C233.034 39.1384 231.055 39.3135 229.135 39.7221C227.534 40.1015 226.341 40.6268 225.526 41.3272C224.1 42.5238 223.896 44.6834 225.119 46.1134C225.235 46.2593 225.381 46.4053 225.526 46.522C226.341 47.2516 227.534 47.7769 229.135 48.1271C231.084 48.5357 233.034 48.74 235.013 48.7108Z" fill="black"/>
</svg>
