<svg xmlns="http://www.w3.org/2000/svg" viewBox="0 0 8.48 8.64"><defs><style>.cls-1,.cls-2{fill:#e32281;}.cls-1,.cls-3{fill-rule:evenodd;}.cls-3{fill:#fff;}</style></defs><title>youtube</title><g id="Слой_2" data-name="Слой 2"><g id="Layer_1" data-name="Layer 1"><path class="cls-1" d="M4.32,0A4.32,4.32,0,0,1,8.48,3.15H7.89a3.76,3.76,0,1,0,0,2.38h.59A4.32,4.32,0,1,1,4.32,0Z"/><circle class="cls-2" cx="4.24" cy="4.32" r="2.99"/><path class="cls-3" d="M5.24,3.11h-2a.71.71,0,0,0-.71.71v1a.71.71,0,0,0,.71.71h2A.71.71,0,0,0,6,4.82v-1a.71.71,0,0,0-.71-.71ZM4.76,4.37l-.94.45a0,0,0,0,1-.05,0V3.86a0,0,0,0,1,.05,0l.94.47a0,0,0,0,1,0,.07Z"/></g></g></svg>